<svg xmlns="http://www.w3.org/2000/svg" xmlns:xlink="http://www.w3.org/1999/xlink" width="2048" zoomAndPan="magnify" viewBox="0 0 1536 1535.999932" height="2048" preserveAspectRatio="xMidYMid meet" version="1.0"><defs><clipPath id="5c2c2c17db"><path d="M 242.761719 116.359375 L 1382.398438 116.359375 L 1382.398438 1306 L 242.761719 1306 Z M 242.761719 116.359375 " clip-rule="nonzero"/></clipPath><clipPath id="80b385a25c"><path d="M 314.761719 116.359375 L 1310.398438 116.359375 C 1350.164062 116.359375 1382.398438 148.597656 1382.398438 188.359375 L 1382.398438 1233.171875 C 1382.398438 1272.9375 1350.164062 1305.171875 1310.398438 1305.171875 L 314.761719 1305.171875 C 274.996094 1305.171875 242.761719 1272.9375 242.761719 1233.171875 L 242.761719 188.359375 C 242.761719 148.597656 274.996094 116.359375 314.761719 116.359375 Z M 314.761719 116.359375 " clip-rule="nonzero"/></clipPath><clipPath id="2d4d16d4c1"><path d="M 0.761719 0.359375 L 1140.398438 0.359375 L 1140.398438 1189 L 0.761719 1189 Z M 0.761719 0.359375 " clip-rule="nonzero"/></clipPath><clipPath id="27fa89b943"><path d="M 72.761719 0.359375 L 1068.398438 0.359375 C 1108.164062 0.359375 1140.398438 32.597656 1140.398438 72.359375 L 1140.398438 1117.171875 C 1140.398438 1156.9375 1108.164062 1189.171875 1068.398438 1189.171875 L 72.761719 1189.171875 C 32.996094 1189.171875 0.761719 1156.9375 0.761719 1117.171875 L 0.761719 72.359375 C 0.761719 32.597656 32.996094 0.359375 72.761719 0.359375 Z M 72.761719 0.359375 " clip-rule="nonzero"/></clipPath><clipPath id="1efda08476"><rect x="0" width="1141" y="0" height="1190"/></clipPath><clipPath id="f8ef9c9b2d"><path d="M 516 254.589844 L 1153 254.589844 L 1153 1166.589844 L 516 1166.589844 Z M 516 254.589844 " clip-rule="nonzero"/></clipPath></defs><g clip-path="url(#5c2c2c17db)"><g clip-path="url(#80b385a25c)"><g transform="matrix(1, 0, 0, 1, 242, 116)"><g clip-path="url(#1efda08476)"><g clip-path="url(#2d4d16d4c1)"><g clip-path="url(#27fa89b943)"><path fill="#f43331" d="M 0.761719 0.359375 L 1140.398438 0.359375 L 1140.398438 1188.96875 L 0.761719 1188.96875 Z M 0.761719 0.359375 " fill-opacity="1" fill-rule="nonzero"/></g></g></g></g></g></g><path fill="#000b3d" d="M 792.628906 1074.472656 C 767.269531 1074.472656 746.644531 1053.851562 746.644531 1028.492188 C 746.644531 1019.695312 749.167969 1011.503906 753.464844 1004.507812 L 787.726562 1034.152344 L 797.515625 1022.832031 L 763.226562 993.167969 C 771.207031 986.527344 781.453125 982.511719 792.628906 982.511719 C 817.976562 982.511719 838.609375 1003.136719 838.609375 1028.492188 C 838.609375 1053.851562 817.976562 1074.472656 792.628906 1074.472656 Z M 792.628906 960.066406 C 754.886719 960.066406 724.203125 990.761719 724.203125 1028.492188 C 724.203125 1066.222656 754.886719 1096.917969 792.628906 1096.917969 C 830.355469 1096.917969 861.050781 1066.222656 861.050781 1028.492188 C 861.050781 990.761719 830.355469 960.066406 792.628906 960.066406 " fill-opacity="1" fill-rule="nonzero"/><g clip-path="url(#f8ef9c9b2d)"><path fill="#000b3d" d="M 1121.808594 491.808594 L 1107.175781 588.960938 C 1103.171875 615.46875 1086.53125 638.574219 1062.664062 650.769531 L 979.976562 696.050781 L 1022.167969 396.027344 L 1039.390625 396.027344 C 1063.6875 396.027344 1086.71875 406.597656 1102.566406 425.007812 C 1118.417969 443.429688 1125.429688 467.773438 1121.808594 491.808594 Z M 1015.894531 1109.691406 C 1016.488281 1113.761719 1017.035156 1117.503906 1017.53125 1120.871094 C 1018.136719 1124.945312 1016.988281 1128.898438 1014.296875 1132.015625 C 1011.617188 1135.125 1007.867188 1136.839844 1003.757812 1136.839844 L 587.203125 1136.839844 C 583.113281 1136.839844 579.390625 1135.144531 576.714844 1132.066406 C 574.023438 1128.996094 572.855469 1125.0625 573.410156 1121.007812 L 573.789062 1118.273438 C 579.9375 1073.527344 592.738281 980.429688 616.332031 920.371094 C 617.792969 916.667969 619.273438 913.394531 620.804688 910.433594 L 971.484375 910.433594 C 972.90625 913.316406 974.296875 916.511719 975.664062 920.148438 C 996.402344 975.460938 1009.085938 1062.785156 1015.894531 1109.691406 Z M 645.1875 881.773438 C 648.109375 879.210938 651.285156 876.40625 654.617188 873.28125 L 936.765625 873.28125 C 940.699219 876.914062 944.441406 880.011719 947.851562 882.847656 C 951.027344 885.476562 953.957031 887.910156 956.707031 890.484375 L 635.640625 890.484375 C 638.59375 887.589844 641.75 884.792969 645.1875 881.773438 Z M 929.039062 843.351562 L 660.84375 843.351562 L 656.613281 822.066406 L 932.039062 822.066406 Z M 582.433594 450.210938 L 552.855469 372.402344 L 995.273438 372.402344 L 934.496094 804.609375 L 653.136719 804.609375 L 583.113281 452.605469 C 582.957031 451.789062 582.722656 450.988281 582.433594 450.210938 Z M 603.582031 333.796875 C 603.582031 326.34375 609.648438 320.277344 617.101562 320.277344 L 948.910156 320.277344 C 956.363281 320.277344 962.421875 326.34375 962.421875 333.796875 L 962.421875 342.476562 L 603.582031 342.476562 Z M 749.519531 279.898438 L 833.269531 279.898438 C 841.441406 279.898438 848.359375 285.371094 850.570312 292.84375 L 732.21875 292.84375 C 734.429688 285.371094 741.347656 279.898438 749.519531 279.898438 Z M 1125.246094 405.484375 C 1103.707031 380.460938 1072.417969 366.101562 1039.390625 366.101562 L 1026.378906 366.101562 L 1027.304688 359.523438 C 1027.90625 355.230469 1026.621094 350.894531 1023.777344 347.621094 C 1020.941406 344.347656 1016.820312 342.476562 1012.484375 342.476562 L 989.855469 342.476562 L 989.855469 333.796875 C 989.855469 311.214844 971.492188 292.84375 948.910156 292.84375 L 875.925781 292.84375 C 873.386719 271.546875 855.238281 254.957031 833.269531 254.957031 L 749.519531 254.957031 C 727.554688 254.957031 709.402344 271.546875 706.863281 292.84375 L 617.101562 292.84375 C 594.519531 292.84375 576.148438 311.214844 576.148438 333.796875 L 576.148438 342.476562 L 531.160156 342.476562 C 526.25 342.476562 521.644531 344.894531 518.847656 348.9375 C 516.0625 352.988281 515.429688 358.152344 517.183594 362.75 L 554.003906 459.667969 L 632.289062 853.171875 C 629.960938 855.296875 627.671875 857.324219 625.421875 859.300781 C 611.871094 871.214844 599.070312 882.476562 588.480469 909.421875 C 563.570312 972.808594 550.449219 1068.308594 544.148438 1114.191406 L 543.765625 1116.9375 C 542.042969 1129.496094 545.824219 1142.1875 554.152344 1151.734375 C 562.480469 1161.292969 574.53125 1166.765625 587.203125 1166.765625 L 1003.757812 1166.765625 C 1016.519531 1166.765625 1028.617188 1161.234375 1036.957031 1151.570312 C 1045.296875 1141.90625 1049.007812 1129.125 1047.136719 1116.5 C 1046.640625 1113.148438 1046.105469 1109.4375 1045.511719 1105.394531 C 1038.535156 1057.367188 1025.550781 967.96875 1003.679688 909.644531 C 993.128906 881.5 979.824219 870.464844 966.953125 859.796875 C 964.03125 857.382812 961.050781 854.886719 958.019531 852.148438 L 974.777344 733.019531 L 1076.46875 677.316406 C 1108.8125 660.726562 1131.34375 629.378906 1136.761719 593.421875 L 1151.402344 496.257812 C 1156.320312 463.605469 1146.792969 430.523438 1125.246094 405.484375 " fill-opacity="1" fill-rule="nonzero"/></g><path fill="#000b3d" d="M 706.558594 751.683594 L 747.210938 751.683594 L 747.210938 731.734375 L 706.558594 731.734375 L 706.558594 677.6875 L 747.210938 677.6875 L 747.210938 657.734375 L 706.558594 657.734375 L 706.558594 603.6875 L 747.210938 603.6875 L 747.210938 583.738281 L 706.558594 583.738281 L 706.558594 529.703125 L 747.210938 529.703125 L 747.210938 509.75 L 706.558594 509.75 L 706.558594 455.703125 L 747.210938 455.703125 L 747.210938 435.753906 L 706.558594 435.753906 L 706.558594 412.664062 L 689.101562 412.664062 L 689.101562 766.792969 L 706.558594 766.792969 L 706.558594 751.683594 " fill-opacity="1" fill-rule="nonzero"/></svg>